<mxfile host="app.diagrams.net" modified="2023-07-14T21:15:59.729Z" agent="Mozilla/5.0 (Windows NT 10.0; Win64; x64) AppleWebKit/537.36 (KHTML, like Gecko) Chrome/114.0.0.0 Safari/537.36 Edg/114.0.1823.82" etag="wfalFBA7XWR9WeEZLyke" version="21.6.2" type="device">
  <diagram name="Page-1" id="Z0UARk2dZ5ztU8HP4Svf">
    <mxGraphModel dx="569" dy="334" grid="1" gridSize="10" guides="1" tooltips="1" connect="1" arrows="1" fold="1" page="1" pageScale="1" pageWidth="850" pageHeight="1100" math="0" shadow="0">
      <root>
        <mxCell id="0" />
        <mxCell id="1" parent="0" />
        <mxCell id="_mEVetN7nfMlTZuGp1Y5-10" value="" style="edgeStyle=orthogonalEdgeStyle;rounded=0;orthogonalLoop=1;jettySize=auto;html=1;" edge="1" parent="1" source="_mEVetN7nfMlTZuGp1Y5-8" target="_mEVetN7nfMlTZuGp1Y5-9">
          <mxGeometry relative="1" as="geometry" />
        </mxCell>
        <mxCell id="_mEVetN7nfMlTZuGp1Y5-8" value="Start" style="strokeWidth=2;html=1;shape=mxgraph.flowchart.start_1;whiteSpace=wrap;" vertex="1" parent="1">
          <mxGeometry x="161.66" y="200" width="116.67" height="70" as="geometry" />
        </mxCell>
        <mxCell id="_mEVetN7nfMlTZuGp1Y5-16" value="" style="edgeStyle=orthogonalEdgeStyle;rounded=0;orthogonalLoop=1;jettySize=auto;html=1;" edge="1" parent="1" source="_mEVetN7nfMlTZuGp1Y5-9" target="_mEVetN7nfMlTZuGp1Y5-15">
          <mxGeometry relative="1" as="geometry" />
        </mxCell>
        <mxCell id="_mEVetN7nfMlTZuGp1Y5-9" value="Set the sampling time, the duration of time for data collection, and &lt;br&gt;sensor data collection" style="whiteSpace=wrap;html=1;strokeWidth=2;" vertex="1" parent="1">
          <mxGeometry x="150" y="310" width="140" height="70" as="geometry" />
        </mxCell>
        <mxCell id="_mEVetN7nfMlTZuGp1Y5-20" value="" style="edgeStyle=orthogonalEdgeStyle;rounded=0;orthogonalLoop=1;jettySize=auto;html=1;" edge="1" parent="1" source="_mEVetN7nfMlTZuGp1Y5-11" target="_mEVetN7nfMlTZuGp1Y5-13">
          <mxGeometry relative="1" as="geometry" />
        </mxCell>
        <mxCell id="_mEVetN7nfMlTZuGp1Y5-11" value="Sets ANN parameters &lt;br&gt;for sensor calibration" style="whiteSpace=wrap;html=1;strokeWidth=2;" vertex="1" parent="1">
          <mxGeometry x="380" y="310" width="140" height="70" as="geometry" />
        </mxCell>
        <mxCell id="_mEVetN7nfMlTZuGp1Y5-30" value="" style="edgeStyle=orthogonalEdgeStyle;rounded=0;orthogonalLoop=1;jettySize=auto;html=1;" edge="1" parent="1" source="_mEVetN7nfMlTZuGp1Y5-13" target="_mEVetN7nfMlTZuGp1Y5-24">
          <mxGeometry relative="1" as="geometry" />
        </mxCell>
        <mxCell id="_mEVetN7nfMlTZuGp1Y5-13" value="Has the &lt;br&gt;best MAE been &lt;br&gt;achieved?" style="rhombus;whiteSpace=wrap;html=1;strokeWidth=2;direction=south;" vertex="1" parent="1">
          <mxGeometry x="395" y="180" width="110" height="100" as="geometry" />
        </mxCell>
        <mxCell id="_mEVetN7nfMlTZuGp1Y5-28" value="" style="edgeStyle=orthogonalEdgeStyle;rounded=0;orthogonalLoop=1;jettySize=auto;html=1;" edge="1" parent="1" source="_mEVetN7nfMlTZuGp1Y5-15" target="_mEVetN7nfMlTZuGp1Y5-27">
          <mxGeometry relative="1" as="geometry" />
        </mxCell>
        <mxCell id="_mEVetN7nfMlTZuGp1Y5-15" value="Data collection from thermocouple device" style="whiteSpace=wrap;html=1;strokeWidth=2;" vertex="1" parent="1">
          <mxGeometry x="150.00000000000003" y="410" width="140" height="70" as="geometry" />
        </mxCell>
        <mxCell id="_mEVetN7nfMlTZuGp1Y5-34" value="" style="edgeStyle=orthogonalEdgeStyle;rounded=0;orthogonalLoop=1;jettySize=auto;html=1;" edge="1" parent="1" source="_mEVetN7nfMlTZuGp1Y5-24" target="_mEVetN7nfMlTZuGp1Y5-33">
          <mxGeometry relative="1" as="geometry" />
        </mxCell>
        <mxCell id="_mEVetN7nfMlTZuGp1Y5-24" value="Minimizes the amount of noise in the calibration data" style="whiteSpace=wrap;html=1;strokeWidth=2;" vertex="1" parent="1">
          <mxGeometry x="610" y="195" width="140" height="70" as="geometry" />
        </mxCell>
        <mxCell id="_mEVetN7nfMlTZuGp1Y5-29" value="" style="edgeStyle=orthogonalEdgeStyle;rounded=0;orthogonalLoop=1;jettySize=auto;html=1;" edge="1" parent="1" source="_mEVetN7nfMlTZuGp1Y5-27" target="_mEVetN7nfMlTZuGp1Y5-11">
          <mxGeometry relative="1" as="geometry" />
        </mxCell>
        <mxCell id="_mEVetN7nfMlTZuGp1Y5-27" value="Calibrate the thermocouple sensor using ANN to the actual temperature value." style="whiteSpace=wrap;html=1;strokeWidth=2;" vertex="1" parent="1">
          <mxGeometry x="380" y="410" width="140" height="70" as="geometry" />
        </mxCell>
        <mxCell id="_mEVetN7nfMlTZuGp1Y5-31" value="" style="endArrow=classic;html=1;rounded=0;entryX=0;entryY=0.5;entryDx=0;entryDy=0;" edge="1" parent="1" target="_mEVetN7nfMlTZuGp1Y5-11">
          <mxGeometry width="50" height="50" relative="1" as="geometry">
            <mxPoint x="350" y="340" as="sourcePoint" />
            <mxPoint x="370" y="320" as="targetPoint" />
            <Array as="points">
              <mxPoint x="350" y="345" />
            </Array>
          </mxGeometry>
        </mxCell>
        <mxCell id="_mEVetN7nfMlTZuGp1Y5-32" value="" style="endArrow=none;html=1;rounded=0;edgeStyle=elbowEdgeStyle;elbow=vertical;entryX=0.5;entryY=1;entryDx=0;entryDy=0;" edge="1" parent="1" target="_mEVetN7nfMlTZuGp1Y5-13">
          <mxGeometry width="50" height="50" relative="1" as="geometry">
            <mxPoint x="350" y="340" as="sourcePoint" />
            <mxPoint x="390" y="230" as="targetPoint" />
            <Array as="points">
              <mxPoint x="380" y="230" />
            </Array>
          </mxGeometry>
        </mxCell>
        <mxCell id="_mEVetN7nfMlTZuGp1Y5-36" value="" style="edgeStyle=orthogonalEdgeStyle;rounded=0;orthogonalLoop=1;jettySize=auto;html=1;" edge="1" parent="1" source="_mEVetN7nfMlTZuGp1Y5-33">
          <mxGeometry relative="1" as="geometry">
            <mxPoint x="680" y="400" as="targetPoint" />
          </mxGeometry>
        </mxCell>
        <mxCell id="_mEVetN7nfMlTZuGp1Y5-33" value="Sets the denoising method of the calibration data" style="whiteSpace=wrap;html=1;strokeWidth=2;" vertex="1" parent="1">
          <mxGeometry x="610" y="310" width="140" height="70" as="geometry" />
        </mxCell>
        <mxCell id="_mEVetN7nfMlTZuGp1Y5-41" value="" style="edgeStyle=orthogonalEdgeStyle;rounded=0;orthogonalLoop=1;jettySize=auto;html=1;" edge="1" parent="1">
          <mxGeometry relative="1" as="geometry">
            <mxPoint x="734.9999999999998" y="445" as="sourcePoint" />
            <mxPoint x="790" y="445" as="targetPoint" />
          </mxGeometry>
        </mxCell>
        <mxCell id="_mEVetN7nfMlTZuGp1Y5-35" value="Has the &lt;br&gt;best MAE been &lt;br&gt;achieved?" style="rhombus;whiteSpace=wrap;html=1;strokeWidth=2;direction=south;" vertex="1" parent="1">
          <mxGeometry x="625" y="400" width="110" height="90" as="geometry" />
        </mxCell>
        <mxCell id="_mEVetN7nfMlTZuGp1Y5-37" value="" style="endArrow=classic;html=1;rounded=0;entryX=0;entryY=0.5;entryDx=0;entryDy=0;" edge="1" parent="1" target="_mEVetN7nfMlTZuGp1Y5-33">
          <mxGeometry width="50" height="50" relative="1" as="geometry">
            <mxPoint x="590" y="350" as="sourcePoint" />
            <mxPoint x="630" y="370" as="targetPoint" />
            <Array as="points">
              <mxPoint x="590" y="345" />
            </Array>
          </mxGeometry>
        </mxCell>
        <mxCell id="_mEVetN7nfMlTZuGp1Y5-38" value="" style="endArrow=none;html=1;rounded=0;entryX=0.5;entryY=1;entryDx=0;entryDy=0;" edge="1" parent="1">
          <mxGeometry width="50" height="50" relative="1" as="geometry">
            <mxPoint x="590" y="350" as="sourcePoint" />
            <mxPoint x="625" y="445" as="targetPoint" />
            <Array as="points">
              <mxPoint x="590" y="400" />
              <mxPoint x="590" y="445" />
            </Array>
          </mxGeometry>
        </mxCell>
        <mxCell id="_mEVetN7nfMlTZuGp1Y5-40" value="End" style="strokeWidth=2;html=1;shape=mxgraph.flowchart.start_1;whiteSpace=wrap;" vertex="1" parent="1">
          <mxGeometry x="790" y="415" width="100" height="60" as="geometry" />
        </mxCell>
      </root>
    </mxGraphModel>
  </diagram>
</mxfile>
